<?xml version="1.0" encoding="utf-8"?>
<!-- Generator: Adobe Illustrator 24.3.0, SVG Export Plug-In . SVG Version: 6.00 Build 0)  -->
<svg version="1.1" id="Layer_1" xmlns="http://www.w3.org/2000/svg" xmlns:xlink="http://www.w3.org/1999/xlink" x="0px" y="0px"
	 viewBox="0 0 1050 750.9" style="enable-background:new 0 0 1050 750.9;" xml:space="preserve">
<style type="text/css">
	.st0{opacity:0.1;fill:#F04444;enable-background:new    ;}
	.st1{fill:#3F3D56;}
	.st2{opacity:0.1;enable-background:new    ;}
	.st3{fill:#F04444;}
	.st4{fill:#F2F2F2;}
	.st5{fill:#E6E8EC;}
	.st6{fill:#FFFFFF;}
	.st7{opacity:0.2;fill:#F04444;enable-background:new    ;}
	.st8{fill:#736E9E;}
	.st9{fill:#FBBEBE;}
	.st10{opacity:5.000000e-02;enable-background:new    ;}
	.st11{opacity:0.1;}
	.st12{opacity:3.000000e-02;enable-background:new    ;}
	.st13{fill:#FF6F61;}
</style>
<ellipse class="st0" cx="525" cy="717.9" rx="525" ry="33"/>
<path class="st1" d="M967.7,693.4c0,2.6-0.3,5.2-0.8,7.8c-0.1,0.5-0.2,1-0.3,1.4c-2.8,11.4-10.8,19.7-20.4,20.2c-0.3,0-0.6,0-1,0
	c-10.1,0-18.7-8.7-21.5-20.7c-0.1-0.3-0.2-0.6-0.2-1c-0.5-2.6-0.8-5.2-0.8-7.8c0-16.3,10.1-29.5,22.5-29.5
	C957.6,663.9,967.7,677.2,967.7,693.4z"/>
<path class="st2" d="M967.7,693.4c0,2.6-0.3,5.2-0.8,7.8c-0.1,0.5-0.2,1-0.3,1.4c-0.3,0-0.7,0-1,0c-2.5-0.1-4.9-0.5-7.4-1
	c-2.1,0.7-4.3,1.2-6.6,1.5c-1.7,0.3-3.4,0.4-5.1,0.5h-1.7c-2.1,0-4.1-0.1-6.2-0.4c-3.3-0.4-6.5-1.2-9.7-2.4c-1.7,0.6-3.5,1-5.2,1.4
	c-0.1-0.3-0.2-0.6-0.2-1c-0.5-2.6-0.8-5.2-0.8-7.8c0-16.3,10.1-29.5,22.5-29.5S967.7,677.2,967.7,693.4z"/>
<path class="st3" d="M1015.7,638.6c0-7.2-1.7-14.2-4.9-20.6l-26.5,8.2l23.2-13.7c-7.9-11.4-20.5-18.6-34.4-19.6
	c-1.1-1.6-2.3-3.2-3.6-4.7l-38,11.8l31.2-18.3c-20-15.4-48.8-11.6-64.1,8.5c-3.6,4.7-6.3,10.2-7.9,15.9l32.5,37.5L888,618.1
	c-20.6,14.6-25.5,43.1-10.9,63.8c11.7,16.5,32.7,23.3,51.8,16.9c9.4,3.4,19.7,3.7,29.3,0.8c24.7,5.5,49.1-10.1,54.5-34.8
	c0.7-3.2,1.1-6.6,1.1-9.9c0-1,0-2-0.1-3C1015,647.6,1015.7,643.1,1015.7,638.6z"/>
<path class="st2" d="M1014.9,647.1c-14-2.7-28.3-2.8-42.3-0.5c-15.9,2.6-32.1,8.4-47.7,4.2c-9.1-2.5-17-8.2-25.9-11.4
	c-8.6-3-17.9-3.6-26.8-1.6c-9.8,23.3,1.2,50.1,24.6,59.9c10.2,4.3,21.6,4.7,32.1,1.2c9.4,3.4,19.7,3.7,29.3,0.8
	c24.7,5.5,49.1-10.1,54.5-34.8c0.7-3.2,1.1-6.6,1.1-9.9c0-1,0-2-0.1-3C1014.2,650.3,1014.6,648.7,1014.9,647.1z"/>
<path class="st4" d="M692.9,172h5.7c1.3,0,2.3,1,2.3,2.3v80.4c0,1.3-1,2.3-2.3,2.3h-5.7c-1.3,0-2.3-1-2.3-2.3v-80.4
	C690.6,173,691.6,172,692.9,172z"/>
<path class="st4" d="M349.3,105.4h2.8c0.8,0,1.5,0.7,1.5,1.5v25c0,0.8-0.7,1.5-1.5,1.5h-2.8c-0.8,0-1.5-0.7-1.5-1.5v-25
	C347.8,106,348.4,105.4,349.3,105.4z"/>
<path class="st4" d="M349.2,156.6h3.1c0.9,0,1.7,0.8,1.7,1.7v45.3c0,0.9-0.8,1.7-1.7,1.7h-3.1c-0.9,0-1.7-0.8-1.7-1.7v-45.3
	C347.5,157.4,348.3,156.6,349.2,156.6z"/>
<path class="st4" d="M349.3,222.4h3c0.9,0,1.6,0.7,1.6,1.6v45.9c0,0.9-0.7,1.6-1.6,1.6h-3c-0.9,0-1.6-0.7-1.6-1.6V224
	C347.6,223.1,348.4,222.4,349.3,222.4z"/>
<path class="st4" d="M386.7,12.9h273.7c19.7,0,35.7,16,35.7,35.7v630c0,19.7-16,35.7-35.7,35.7H386.7c-19.7,0-35.7-16-35.7-35.7
	v-630C351,28.8,367,12.9,386.7,12.9z"/>
<path class="st5" d="M492.8,33.8H536c1.4,0,2.5,1.1,2.5,2.5v4.7c0,1.4-1.1,2.5-2.5,2.5h-43.1c-1.4,0-2.5-1.1-2.5-2.5v-4.7
	C490.3,34.9,491.4,33.8,492.8,33.8z"/>
<circle class="st5" cx="551.3" cy="38.7" r="5.5"/>
<path class="st6" d="M674.8,58.5v610c0,15.1-12.3,27.4-27.4,27.4H399.8c-15.1,0-27.4-12.3-27.4-27.4v-610
	c0-15.1,12.3-27.4,27.4-27.4l0,0h37.1v4.8c0,12.5,10.1,22.5,22.6,22.5h126c12.5,0,22.6-10.1,22.6-22.6v0v-4.7h39.5
	C662.6,31.2,674.8,43.4,674.8,58.5z"/>
<path class="st7" d="M677,310.4v207.4h-2.2v0.2H372.4V264.6c1.9-2.2,3.9-4.5,5.9-6.9c42.5-50.7,100.2-64.1,144.9-65.5
	c30.6-1,61.1,5.3,90.2,17.9c15.4,6.6,37.4,13.9,61.5,14.6v78.4C676.3,307.4,677,310.4,677,310.4z"/>
<path class="st7" d="M677,310.4v207.4H372.4V382c10.9-2.7,26-13.2,45.4-42.2c23.3-34.7,54.8-43.8,79.3-44.8
	c16.8-0.7,33.4,3.6,49.3,12.2c17.9,9.7,52.4,21.3,78.7-12.5c29-37.4,44.4-6.6,49.7,8.6C676.3,307.4,677,310.4,677,310.4z"/>
<path class="st8" d="M415,479.9h218c6.6,0,12,5.4,12,12v52c0,6.6-5.4,12-12,12H415c-6.6,0-12-5.4-12-12v-52
	C403,485.2,408.4,479.9,415,479.9z"/>
<path class="st3" d="M134.1,683.7l19.1-11.3c-2.6-4.4-5.9-8.4-9.8-11.7L107.3,672l28.3-16.6c-22.3-12.2-50.2-4-62.4,18.2
	c-3.7,6.8-5.7,14.4-5.7,22.1c0,25.4,20.6,26.3,46,26.3s46-0.9,46-26.3c0-6.4-1.3-12.8-3.9-18.7L134.1,683.7z"/>
<path class="st2" d="M138.9,708.4c-2-2-4.3-3.8-6.8-5.3c-3.5-2.3-7.1-4.7-11.2-5.5c-3.6-0.7-7.3-0.1-11-0.3
	c-6.4-0.4-12.4-3.1-16.8-7.7c-2.6-2.7-4.7-6-7.8-8.1c-3.4-2.2-7.7-2.7-11.7-2.2c-1.2,0.2-2.3,0.4-3.5,0.7c-1.8,5-2.7,10.3-2.7,15.6
	c0,25.4,20.6,26.3,46,26.3c12.3,0,23.5-0.2,31.8-3.3l-1.4-2.6C142.6,713.3,140.9,710.8,138.9,708.4z"/>
<path class="st3" d="M228.2,582.3c-1.5,1.3-2.6,2.9-3.3,4.7c-1.7,5.3,3.1,10.6,3.5,16.2c0.4,4.4-2,8.6-3.3,12.8
	c-3.1,10.8,0.7,22.4,9.5,29.4c0.9,0.8,2,1.3,3.2,1.6c2,0.2,3.9-0.3,5.4-1.6c2.3-1.7,4.1-4,5.1-6.7c0.8-2.6,1.3-5.4,1.3-8.2l0.7-10.7
	c0.7-11.2,1.4-22.7-1.3-33.7c-0.9-3.6-2.5-11.9-6.7-12.4S231,579.6,228.2,582.3z"/>
<path class="st9" d="M298,536.3c-5,17.5-8.6,35.4-10.8,53.5c-0.3,2.5-0.6,5.2-2.2,7.3c-3.1,4.1-9.2,3.9-14.3,3.2
	c-1.2-0.1-2.4-0.4-3.5-1c-1.9-1.3-2.3-3.9-2.6-6.2c-3.5-34.1-5.8-68.2-7-102.4c0-1.3,42.7-1.4,46.4,2s0.8,16.3,0,20.6
	C302.6,521.1,300.2,528.7,298,536.3z"/>
<path class="st10" d="M298,536.3c-5,17.5-8.6,35.4-10.8,53.5c-0.3,2.5-0.6,5.2-2.2,7.3c-3.1,4.1-9.2,3.9-14.3,3.2
	c-1.2-0.1-2.4-0.4-3.5-1c-1.9-1.3-2.3-3.9-2.6-6.2c-3.5-34.1-5.8-68.2-7-102.4c0-1.3,42.7-1.4,46.4,2s0.8,16.3,0,20.6
	C302.6,521.1,300.2,528.7,298,536.3z"/>
<path class="st9" d="M209,485.9l17.3,38.1c5.8,12.7,11.6,25.5,14.3,39.1c1.1,5.7,1.8,11.5,2.1,17.2c0.4,5,0.3,10-0.5,14.9
	c-0.6,3.7-1.8,7.2-2.3,10.9c-2,14.7,6.3,28.5,12,42.1c4.9,11.7,8,24.1,9.3,36.8c0.5,5.4,0.8,11.1,3.9,15.6c5.6-1.7,11.1-3.2,17-2.5
	c1-8.6-4.4-16.5-6.4-25c-3.7-15.5,4.4-31.8,1.7-47.5c-1.5-8.5-6.1-16.5-5.8-25.1c0.7-15.7,3.7-31.6,0.7-47
	c-3.4-17.4-13.1-33.2-15.2-50.8c-1.6-13.5,1-28.5-6.5-39.8C234.1,461.8,217.1,471.5,209,485.9z"/>
<path class="st3" d="M265.9,725c-1.7,0.1-3.8,0-4.8-1.4c-0.5-0.8-0.8-1.7-0.9-2.7c-0.8-6-1.2-12.1-1.2-18.2c0-2.2,0.1-4.6,1.3-6.4
	c0.9-1.1,1.9-2.1,3.1-3c2.6-2.5,4.6-6,8-7.1c3.1-0.9,6.3,0,8.6,2.2c2.2,2.3,3.5,5.3,3.8,8.4c0.5,3.7,0.1,7.8,2,11
	c0.8,1.2,1.9,2.3,2.8,3.5c3,4,5.7,11.8-0.5,13.5C281.5,726.4,272.7,724.7,265.9,725z"/>
<path class="st3" d="M280.9,260.6c3.5-6.8,1.4-15.5-3.6-21.2s-12.3-8.9-19.8-10.7c-10-2.3-20.7-2.3-30.3,1.4
	c-7.6,2.9-14.2,8-21.2,12.1c-12.4,7.3-26.4,11.8-40.8,13c-16,1.4-33.9-0.8-46.2,9.4c-22.7,18.7-6.9,60.7-28,81.1
	c-5.7,5.5-13.3,8.5-19.8,12.9s-12.4,11.6-11.3,19.5c0.5,3.8,2.6,7.2,4.9,10.1c10.2,12.8,27.4,19.5,43.6,17.5s31.1-12.4,39-26.8
	c2-3.6,3.6-7.5,6.8-10.1c6.3-5.2,15.6-3.1,23.8-3.4c18.2-0.6,34.7-16.1,36.3-34.3c0.7-7.8-0.6-16.8,4.9-22.2
	c4.5-4.4,11.5-4.4,17.6-5.7c11.3-2.5,19.5-10.6,24.6-20.6c2.4-4.6,2.1-9.7,5.6-13.5C270.8,265,277.6,267,280.9,260.6z"/>
<g class="st11">
	<path d="M150.4,258.4c6.6-0.6,13.2-1.8,19.6-3.7c-1.8,0.2-3.6,0.5-5.4,0.6c-12.5,1-26.3,0-37.6,4.4
		C134.6,258.9,142.7,259,150.4,258.4z"/>
	<path d="M139.2,372c-3.1,2.6-4.8,6.5-6.8,10.1c-6.1,10.9-15.8,19.4-27.4,23.9c0.9-0.1,1.8-0.1,2.7-0.2c16.2-2,31.1-12.4,39-26.7
		c2-3.6,3.6-7.5,6.8-10.1l0.5-0.4C148.5,368.3,143.2,368.7,139.2,372z"/>
	<path d="M276.6,239.4c-5-5.7-12.4-8.9-19.8-10.7c-10-2.3-20.7-2.3-30.3,1.4l-0.6,0.3c5.6-0.3,11.3,0.2,16.8,1.5
		c7.4,1.7,14.8,4.9,19.8,10.7s7.1,14.4,3.6,21.2c-3.3,6.4-10.1,4.4-13.9,8.6c-3.5,3.8-3.3,8.9-5.6,13.5
		c-4.4,8.6-11.1,15.8-20.1,19.2c3.1-0.7,6.5-1.1,9.6-1.8c11.3-2.5,19.5-10.6,24.6-20.6c2.4-4.6,2.1-9.7,5.6-13.5
		c3.8-4.1,10.6-2.2,13.9-8.6C283.6,253.9,281.5,245.2,276.6,239.4z"/>
	<path d="M221.8,306.4c-6.1,1.3-13.2,1.3-17.6,5.7c-5.6,5.5-4.2,14.5-4.9,22.2c-1.2,13.5-10.7,25.7-23.1,31.2h0.9
		c18.2-0.6,34.7-16.2,36.3-34.3c0.7-7.8-0.6-16.8,4.9-22.2c1.3-1.2,2.8-2.2,4.4-2.8L221.8,306.4z"/>
</g>
<path class="st9" d="M281.2,351.6c-0.8,1.5-2.5,2.1-4.1,2.7c-16.5,6.1-33.8,12.2-51.1,9.7c-0.6-2.7-1.3-5.5-1.9-8.2
	c-0.9-4-1.9-7.9-2.8-11.9c-0.4-1.9-0.9-3.8-1.2-5.7l0,0c-0.6-3-0.8-6.1-0.6-9.2c0.1-1.1,0.3-2.2,0.6-3.3c0.5-2,1.4-3.8,2.5-5.5
	c0.2-0.3,0.4-0.5,0.6-0.8l0,0c1-1.2,2.2-2.2,3.5-3c3-1.6,7-2.3,8.2-5.5c0.5-1.6,0.4-3.4-0.1-5c-1-4-2.8-7.8-3.9-11.7
	c-1.4-5,0.7-4.7,5.5-5.9c8.7-2.2,17.8-3.8,26.7-2c-0.4,4.4-0.8,8.9,0.3,13.2s4.1,8.4,8.4,9.6c0.6,0.2,1.3,0.3,2,0.4l0,0
	c0.9,0.1,1.8,0.5,2.6,1.1c0.5,0.4,0.9,1,1.2,1.6c0.4,1.1,0.7,2.2,0.9,3.3c1.6,10.5,2.7,21,3.4,31.6v0.4
	C281.9,348.9,281.8,350.3,281.2,351.6z"/>
<path class="st9" d="M196.5,334.4c-3.7,5.7-5,12.6-6.1,19.3l-7.3,42.1c-1,5.8-1.9,12.1,1.1,17.1c1,1.7,2.4,3.2,3.1,5
	c0.6,1.8,0.9,3.7,1.1,5.6c1.7,9.6,11.2,16.2,20.7,18.5c3.4,0.8,7.5,1.2,10.2-1.1c3-2.5,3-7.2,1.2-10.6s-5-5.8-8.1-8.1l-10.4-7.6
	l6-46c0.4-3.3,2-7.7,5.4-7.3c3.1,0.3,5.5,4.8,8.2,3.4c0.9-0.6,1.5-1.5,1.7-2.5c1.2-3.8,0.9-7.8,0.5-11.8l-1.2-14.3
	c-0.4-4.6,0.8-8.1,1.3-12.5c0.6-5.1-2.7-3.5-6.9-2.4C208.9,323.3,201.1,327.3,196.5,334.4z"/>
<path class="st9" d="M325.4,403.5c-0.8,1.3-1.9,2.3-3.2,2.9c-8.1,4.6-17.6,5.9-26.7,3.8c-2.1-0.6-4.2-1.1-6.3-1.5
	c-3.4-0.4-6.9,0.3-10.4,0c-7-0.5-13.1-4.9-18-10c-2.9-3-5.6-7.9-2.9-11.1c1.5-1.6,3.8-2.3,6-1.8c2.1,0.5,4.2,1.2,6.1,2.3
	c6.7,3.1,13.9,5.1,21.2,5.8c5,0.5,11.4-0.3,13.1-5.1c0.8-2.3,0.2-4.9-0.3-7.3c-1.6-6.5-3.2-13.1-4.8-19.6c-0.1-0.6-0.3-1.1-0.6-1.6
	c-0.1-0.1-0.2-0.3-0.3-0.4c-0.6-0.5-1.4-0.9-2.2-1c-3.7-0.9-7.5-2.4-10.1-5.2c-1.7-2-3.1-4.2-4.1-6.6c-0.3-0.6-0.5-1.2-0.8-1.9
	c-2-4.8-4.2-9.7-5.9-14.7c-1.2-3.4-2-6.9-2.6-10.4c-0.4-3.1-0.7-4.5,1-5.8c0.5-0.3,0.9-0.6,1.4-0.9c0.8-0.4,1.6-0.8,2.6-1.2l0.9-0.4
	c2.7-1.1,5.5-2,8.4-2.7c6.9-1.6,14.4,1.8,19.1,7.1s7.2,12.3,8.8,19.2s2.4,14.1,4.4,20.9c0.8,2.7,1.7,5.3,2.4,8
	c0.7,3.2,1.2,6.4,1.5,9.7c0.9,8.3,1.9,16.6,2.8,24.9C326.1,400.4,326,402,325.4,403.5z"/>
<path class="st9" d="M222.7,399.9c2,12.8-3.8,25.3-9.3,37c3.1,2.3,7,3.4,10.8,4.4c25.2,6.6,51.3,8.6,77.2,5.8
	c0.6-4.3,1.2-8.9-0.6-12.9c-1.1-2.5-3-4.5-4.2-6.9c-2-4-1.8-8.6-1.6-13.1l1.8-37.8c-12.4-5.7-26.8-0.4-40.5,0.4
	c-7.1,0.4-14.2-0.5-21.2,0.8c-3.6,0.6-15,2.4-16.7,6.2S222.1,395.8,222.7,399.9z"/>
<path class="st10" d="M222.7,399.9c2,12.8-3.8,25.3-9.3,37c3.1,2.3,7,3.4,10.8,4.4c25.2,6.6,51.3,8.6,77.2,5.8
	c0.6-4.3,1.2-8.9-0.6-12.9c-1.1-2.5-3-4.5-4.2-6.9c-2-4-1.8-8.6-1.6-13.1l1.8-37.8c-12.4-5.7-26.8-0.4-40.5,0.4
	c-7.1,0.4-14.2-0.5-21.2,0.8c-3.6,0.6-15,2.4-16.7,6.2S222.1,395.8,222.7,399.9z"/>
<path class="st12" d="M255.6,436.5c-13.5-2.8-26.7-7.4-40.4-7.8c-0.7-0.1-1.4,0.1-2,0.4c-0.7,0.6-1.1,1.3-1.3,2.2
	c-1.4,4.9-2.7,9.8-3.8,14.8c-3.7,16.5-5.5,34.8,2.6,49.6c-0.1-4.8,3-9.3,7-12s8.9-3.8,13.7-4.2s9.9-0.3,14.4,1.7
	c6.4,2.9,10.7,8.9,11.4,15.9l47.2,1.5c0.9,0.3,1.9-0.3,2.1-1.2c0.1-0.2,0.1-0.5,0.1-0.7c1.7-15.2,1.7-30.5-0.2-45.6
	c-0.5-4.2-0.6-10.1-5.4-11.7c-5.7-1.9-14.7,0.3-20.7,0.1C272.1,439.2,263.8,438.2,255.6,436.5z"/>
<path class="st13" d="M298.5,362.4l-0.1,21l-47.8,1.6c-8.8,0.3-17.6,0.6-26.2,2.5c-2.5,0.6-4.9,1.3-7.3,2c-2.5-9.2-5-18.9-4.3-28.3
	l0,0c0.2-2.5,0.6-5.1,1.3-7.5c1.5-5.3,4.4-10.3,5.9-15.5l0,0c0.6-2,0.9-4.1,1-6.3c-0.1-2.1-0.4-4.2-1-6.3c-0.4-1.7-0.6-3.4-0.6-5.1
	l3.8-1.2l0,0c0.1,0.5,0.2,0.9,0.3,1.4c0.2,1,0.3,1.9,0.4,2.9l0,0c0.2,2.4,0.3,4.8,0.2,7.2c-0.1,4.8-0.8,10.2,2.2,14
	c3.9,4.9,11.4,4.1,17.6,2.9l16.1-3.2c5.1-1,10.8-2.4,13.4-6.9c1.1-2.2,1.7-4.6,1.7-7v-0.5c0.2-5.3-0.3-10.6-1.6-15.8
	c-0.4-1.6-0.9-3.2-1.4-4.8h1.6c0.9,0.1,1.8,0.5,2.6,1.1c0.5,0.4,0.9,1,1.2,1.6l0.9-0.4c3.5,14.5,9.4,28.3,17.3,41
	c1,1.4,1.8,3,2.4,4.7c0.2,0.9,0.4,1.8,0.4,2.8C298.5,361,298.5,361.7,298.5,362.4z"/>
<circle class="st9" cx="248" cy="269.9" r="29"/>
<path class="st9" d="M196.5,334.4c-3.7,5.7-5,12.6-6.1,19.3l-7.3,42.1c-1,5.8-1.9,12.1,1.1,17.1c1,1.7,2.4,3.2,3.1,5
	c0.6,1.8,0.9,3.7,1.1,5.6c1.7,9.6,11.2,16.2,20.7,18.5c3.4,0.8,7.5,1.2,10.2-1.1c3-2.5,3-7.2,1.2-10.6s-5-5.8-8.1-8.1l-10.4-7.6
	l6-46C208.3,365.2,201.1,327.3,196.5,334.4z"/>
<path class="st9" d="M314.7,335.4c1.6,7,2.4,14.1,4.4,20.9c0.8,2.7,1.7,5.3,2.4,8c0.7,3.2,1.2,6.4,1.5,9.7l2.8,24.9
	c0.3,1.5,0.2,3.1-0.4,4.6c-0.8,1.3-1.9,2.3-3.2,2.9c-8.1,4.6-17.6,5.9-26.7,3.8c-2.1-0.6-4.2-1.1-6.3-1.5c-3.4-0.4-6.9,0.3-10.4,0
	c-7-0.5-13.1-4.9-18-10c-2.9-3-5.6-7.9-2.9-11.1c1.5-1.6,3.8-2.3,6-1.8c2.1,0.5,4.2,1.2,6.1,2.3c6.7,3.1,13.9,5.1,21.2,5.8
	c5,0.5,11.4-0.3,13.1-5.1c0.8-2.3,0.2-4.9-0.3-7.3l-4.8-19.6C298.9,361.2,313.1,328.5,314.7,335.4z"/>
<path class="st3" d="M230,278.8c-1.3-4.6-3.1-10.4,0.5-13.6c1.3-1,2.9-1.6,4.5-1.7c8.1-1,16.6,3.8,24.4,1.2c7.1-2.3,11-10,8.7-17.1
	c-1-3.2-3.2-5.8-6.1-7.5c-3.4-2-7.5-2.4-11.4-2.7c-10.4-1-21.1-1.8-30.8,2S202,253.1,204,263.3c0.9,4.9,3.9,9.1,7,12.9
	c2.4,3,11.8,17,15.6,16.8C231.9,292.7,230.9,281.8,230,278.8z"/>
<path class="st2" d="M262.1,240.1c-0.6-0.3-1.2-0.6-1.8-0.9c5.5,5,6,13.6,0.9,19.1c-1.6,1.7-3.6,3-5.8,3.8
	c-7.8,2.6-16.2-2.2-24.4-1.2c-1.6,0.1-3.2,0.7-4.5,1.7c-3.6,3.1-1.8,8.9-0.5,13.6c0.8,3,1.9,13.9-3.5,14.2h-0.1
	c1.6,1.6,3.1,2.7,4.2,2.6c5.3-0.3,4.3-11.2,3.5-14.2c-1.3-4.6-3.1-10.4,0.5-13.6c1.3-1,2.9-1.6,4.5-1.7c8.1-1,16.6,3.8,24.4,1.2
	c7.1-2.3,11-10,8.7-17.1C267.1,244.5,265,241.8,262.1,240.1L262.1,240.1z"/>
<rect x="362" y="600.9" class="st4" width="326" height="101"/>
<path class="st8" d="M511,633.5v35.7l28-17.8L511,633.5z"/>
<path class="st4" d="M261,34.1L245.5,44l9.4-17.1c-2.7-2.1-6-3.3-9.4-3.3h-0.2c-1.1,0-2.2-0.1-3.2-0.2l-5.3,3.3l2.3-4.1
	c-3.7-1.3-7-3.7-9.2-7l-9.4,6l6-10.8C220.9,4.1,213.4,0,205.3,0c-9.8,0-18.5,5.8-24.1,14.9c-3.4,5.5-9.5,8.8-16,8.6h-0.5
	c-10.8,0-19.6,12.2-19.6,27.4s8.8,27.4,19.6,27.4c2.4,0,4.7-0.6,6.8-1.7c7.4-3.6,16.1-3.8,23.7-0.5c6.4,2.9,13.7,2.9,20.1,0
	c7.5-3.3,16.1-3.1,23.5,0.5c2.1,1.1,4.4,1.7,6.7,1.7c10.8,0,19.6-12.3,19.6-27.4C265.1,45,263.7,39.3,261,34.1z"/>
<path class="st12" d="M231.7,74.2c-5.6-1.1-11.5-0.4-16.7,1.8c-6.4,2.9-13.7,2.9-20.1,0c-7.6-3.3-16.2-3.2-23.7,0.5
	c-2.1,1.1-4.4,1.7-6.8,1.7c-9.6,0-17.6-9.7-19.2-22.4c1.9-1.4,3.5-3.2,4.8-5.2c5.6-9.1,14.4-14.9,24.1-14.9c9.8,0,18.4,5.8,24,14.7
	c3.4,5.5,9.5,8.8,16,8.7h0.2C221.9,59.1,228.5,65.2,231.7,74.2z"/>
<path class="st4" d="M792,257.2l-7.7,4.9l4.7-8.5c-1.3-1.1-3-1.6-4.7-1.7h-0.1c-0.5,0-1.1,0-1.6-0.1l-2.7,1.7l1.1-2
	c-1.9-0.6-3.5-1.9-4.6-3.5l-4.7,3l3-5.4c-2.5-3.3-6.4-5.2-10.5-5.3c-4.9,0-9.2,2.9-12,7.4c-1.7,2.8-4.8,4.4-8,4.3h-0.3
	c-5.4,0-9.8,6.1-9.8,13.6s4.4,13.7,9.8,13.7c1.2,0,2.4-0.3,3.4-0.9c3.7-1.8,8-1.9,11.8-0.2c1.6,0.7,3.3,1.1,5,1.1
	c1.7,0,3.4-0.4,5-1.1c3.8-1.6,8-1.5,11.7,0.2c1,0.5,2.2,0.8,3.4,0.8c5.4,0,9.8-6.1,9.8-13.7C794,262.6,793.4,259.8,792,257.2z"/>
<path class="st12" d="M777.4,277.1c-2.8-0.5-5.7-0.2-8.4,0.9c-3.2,1.4-6.8,1.4-10,0c-3.8-1.7-8.1-1.6-11.8,0.2
	c-1,0.6-2.2,0.9-3.4,0.9c-4.8,0-8.8-4.8-9.6-11.2c1-0.7,1.8-1.6,2.4-2.6c2.8-4.5,7.2-7.4,12-7.4s9.2,2.9,12,7.3
	c1.7,2.8,4.7,4.4,8,4.4h0.1C772.5,269.6,775.8,272.7,777.4,277.1z"/>
<path class="st4" d="M809.1,129.7l12.4,7.9l-7.6-13.7c2.1-1.7,4.8-2.6,7.5-2.7h0.2c0.9,0,1.7-0.1,2.6-0.2l4.2,2.7l-1.8-3.3
	c3-1,5.6-3,7.4-5.6l7.5,4.8l-4.8-8.7c4.4-5.3,10.4-8.5,16.9-8.5c7.8,0,14.8,4.7,19.3,11.9c2.7,4.4,7.6,7.1,12.8,6.9h0.4
	c8.7,0,15.7,9.8,15.7,21.9s-7,21.9-15.7,21.9c-1.9,0-3.8-0.5-5.5-1.4c-6-2.9-12.9-3-19-0.4c-5.1,2.3-11,2.3-16.1,0
	c-6-2.6-12.9-2.5-18.8,0.4c-1.7,0.9-3.5,1.3-5.4,1.3c-8.7,0-15.7-9.8-15.7-21.9C805.8,138.4,806.9,133.8,809.1,129.7z"/>
<path class="st12" d="M832.6,161.8c4.5-0.9,9.2-0.4,13.4,1.5c5.1,2.3,11,2.3,16.1,0c6.1-2.7,13-2.5,19,0.4c1.7,0.9,3.6,1.4,5.5,1.4
	c7.7,0,14.1-7.8,15.4-18c-1.5-1.1-2.9-2.5-3.8-4.1c-4.5-7.3-11.5-11.9-19.3-11.9s-14.8,4.6-19.3,11.8c-2.7,4.4-7.6,7.1-12.8,7h-0.2
	C840.5,149.7,835.1,154.6,832.6,161.8z"/>
</svg>
